<mxfile host="app.diagrams.net" modified="2023-06-13T18:32:29.845Z" agent="Mozilla/5.0 (Windows NT 10.0; Win64; x64) AppleWebKit/537.36 (KHTML, like Gecko) Chrome/109.0.0.0 Safari/537.36" etag="iJS_l-264DwHUXvy5pMo" version="21.3.8" type="device">
  <diagram id="C5RBs43oDa-KdzZeNtuy" name="Page-1">
    <mxGraphModel dx="1173" dy="603" grid="1" gridSize="10" guides="1" tooltips="1" connect="1" arrows="1" fold="1" page="1" pageScale="1" pageWidth="827" pageHeight="1169" math="0" shadow="0">
      <root>
        <mxCell id="WIyWlLk6GJQsqaUBKTNV-0" />
        <mxCell id="WIyWlLk6GJQsqaUBKTNV-1" parent="WIyWlLk6GJQsqaUBKTNV-0" />
        <mxCell id="WIyWlLk6GJQsqaUBKTNV-2" value="" style="rounded=0;html=1;jettySize=auto;orthogonalLoop=1;fontSize=11;endArrow=block;endFill=0;endSize=8;strokeWidth=1;shadow=0;labelBackgroundColor=none;edgeStyle=orthogonalEdgeStyle;" parent="WIyWlLk6GJQsqaUBKTNV-1" source="WIyWlLk6GJQsqaUBKTNV-3" edge="1">
          <mxGeometry relative="1" as="geometry">
            <mxPoint x="186" y="170" as="targetPoint" />
            <Array as="points">
              <mxPoint x="186" y="145" />
              <mxPoint x="187" y="145" />
            </Array>
          </mxGeometry>
        </mxCell>
        <mxCell id="WIyWlLk6GJQsqaUBKTNV-3" value="Product Catalog" style="rounded=1;whiteSpace=wrap;html=1;fontSize=12;glass=0;strokeWidth=1;shadow=0;" parent="WIyWlLk6GJQsqaUBKTNV-1" vertex="1">
          <mxGeometry x="126" y="80" width="120" height="40" as="geometry" />
        </mxCell>
        <mxCell id="3Q45-pERIwKvSEem9vSz-4" value="DB" style="shape=cylinder3;whiteSpace=wrap;html=1;boundedLbl=1;backgroundOutline=1;size=15;" vertex="1" parent="WIyWlLk6GJQsqaUBKTNV-1">
          <mxGeometry x="160" y="470" width="650" height="130" as="geometry" />
        </mxCell>
        <mxCell id="3Q45-pERIwKvSEem9vSz-5" value="Customer Service" style="rounded=1;whiteSpace=wrap;html=1;fontSize=12;glass=0;strokeWidth=1;shadow=0;" vertex="1" parent="WIyWlLk6GJQsqaUBKTNV-1">
          <mxGeometry x="130" y="172" width="120" height="40" as="geometry" />
        </mxCell>
        <mxCell id="3Q45-pERIwKvSEem9vSz-6" value="" style="rounded=0;html=1;jettySize=auto;orthogonalLoop=1;fontSize=11;endArrow=block;endFill=0;endSize=8;strokeWidth=1;shadow=0;labelBackgroundColor=none;edgeStyle=orthogonalEdgeStyle;" edge="1" parent="WIyWlLk6GJQsqaUBKTNV-1">
          <mxGeometry relative="1" as="geometry">
            <mxPoint x="188" y="209" as="sourcePoint" />
            <mxPoint x="188.0666666666666" y="440" as="targetPoint" />
            <Array as="points">
              <mxPoint x="188" y="234" />
              <mxPoint x="189" y="234" />
            </Array>
          </mxGeometry>
        </mxCell>
        <mxCell id="3Q45-pERIwKvSEem9vSz-7" value="Customer" style="rounded=1;whiteSpace=wrap;html=1;fontSize=12;glass=0;strokeWidth=1;shadow=0;" vertex="1" parent="WIyWlLk6GJQsqaUBKTNV-1">
          <mxGeometry x="126" y="80" width="120" height="40" as="geometry" />
        </mxCell>
        <mxCell id="3Q45-pERIwKvSEem9vSz-12" value="Product Catalog Service" style="rounded=1;whiteSpace=wrap;html=1;fontSize=12;glass=0;strokeWidth=1;shadow=0;fontStyle=0" vertex="1" parent="WIyWlLk6GJQsqaUBKTNV-1">
          <mxGeometry x="280" y="172" width="120" height="40" as="geometry" />
        </mxCell>
        <mxCell id="3Q45-pERIwKvSEem9vSz-13" value="" style="rounded=0;html=1;jettySize=auto;orthogonalLoop=1;fontSize=11;endArrow=block;endFill=0;endSize=8;strokeWidth=1;shadow=0;labelBackgroundColor=none;edgeStyle=orthogonalEdgeStyle;fontStyle=1" edge="1" parent="WIyWlLk6GJQsqaUBKTNV-1">
          <mxGeometry relative="1" as="geometry">
            <mxPoint x="339" y="208" as="sourcePoint" />
            <mxPoint x="340" y="439" as="targetPoint" />
            <Array as="points">
              <mxPoint x="339" y="233" />
              <mxPoint x="340" y="233" />
            </Array>
          </mxGeometry>
        </mxCell>
        <mxCell id="3Q45-pERIwKvSEem9vSz-17" value="Inventory Service" style="rounded=1;whiteSpace=wrap;html=1;fontSize=12;glass=0;strokeWidth=1;shadow=0;" vertex="1" parent="WIyWlLk6GJQsqaUBKTNV-1">
          <mxGeometry x="440" y="174" width="120" height="40" as="geometry" />
        </mxCell>
        <mxCell id="3Q45-pERIwKvSEem9vSz-18" value="" style="rounded=0;html=1;jettySize=auto;orthogonalLoop=1;fontSize=11;endArrow=block;endFill=0;endSize=8;strokeWidth=1;shadow=0;labelBackgroundColor=none;edgeStyle=orthogonalEdgeStyle;" edge="1" parent="WIyWlLk6GJQsqaUBKTNV-1">
          <mxGeometry relative="1" as="geometry">
            <mxPoint x="500" y="214" as="sourcePoint" />
            <mxPoint x="501" y="445" as="targetPoint" />
            <Array as="points">
              <mxPoint x="500" y="239" />
              <mxPoint x="501" y="239" />
            </Array>
          </mxGeometry>
        </mxCell>
        <mxCell id="3Q45-pERIwKvSEem9vSz-20" value="" style="rounded=0;html=1;jettySize=auto;orthogonalLoop=1;fontSize=11;endArrow=block;endFill=0;endSize=8;strokeWidth=1;shadow=0;labelBackgroundColor=none;edgeStyle=orthogonalEdgeStyle;" edge="1" parent="WIyWlLk6GJQsqaUBKTNV-1">
          <mxGeometry relative="1" as="geometry">
            <mxPoint x="658" y="169" as="targetPoint" />
            <Array as="points">
              <mxPoint x="658" y="144" />
              <mxPoint x="659" y="144" />
            </Array>
            <mxPoint x="658.0666666666666" y="119" as="sourcePoint" />
          </mxGeometry>
        </mxCell>
        <mxCell id="3Q45-pERIwKvSEem9vSz-22" value="Order service" style="rounded=1;whiteSpace=wrap;html=1;fontSize=12;glass=0;strokeWidth=1;shadow=0;" vertex="1" parent="WIyWlLk6GJQsqaUBKTNV-1">
          <mxGeometry x="600" y="171" width="104" height="40" as="geometry" />
        </mxCell>
        <mxCell id="3Q45-pERIwKvSEem9vSz-23" value="" style="rounded=0;html=1;jettySize=auto;orthogonalLoop=1;fontSize=11;endArrow=block;endFill=0;endSize=8;strokeWidth=1;shadow=0;labelBackgroundColor=none;edgeStyle=orthogonalEdgeStyle;" edge="1" parent="WIyWlLk6GJQsqaUBKTNV-1">
          <mxGeometry relative="1" as="geometry">
            <mxPoint x="660" y="208" as="sourcePoint" />
            <mxPoint x="661" y="439" as="targetPoint" />
            <Array as="points">
              <mxPoint x="660" y="233" />
              <mxPoint x="661" y="233" />
            </Array>
          </mxGeometry>
        </mxCell>
        <mxCell id="3Q45-pERIwKvSEem9vSz-24" value="Order" style="rounded=1;whiteSpace=wrap;html=1;fontSize=12;glass=0;strokeWidth=1;shadow=0;" vertex="1" parent="WIyWlLk6GJQsqaUBKTNV-1">
          <mxGeometry x="598" y="79" width="104" height="40" as="geometry" />
        </mxCell>
        <mxCell id="3Q45-pERIwKvSEem9vSz-27" value="Inventory" style="rounded=1;whiteSpace=wrap;html=1;fontSize=12;glass=0;strokeWidth=1;shadow=0;" vertex="1" parent="WIyWlLk6GJQsqaUBKTNV-1">
          <mxGeometry x="450" y="80" width="120" height="40" as="geometry" />
        </mxCell>
        <mxCell id="3Q45-pERIwKvSEem9vSz-29" value="" style="rounded=0;html=1;jettySize=auto;orthogonalLoop=1;fontSize=11;endArrow=block;endFill=0;endSize=8;strokeWidth=1;shadow=0;labelBackgroundColor=none;edgeStyle=orthogonalEdgeStyle;" edge="1" parent="WIyWlLk6GJQsqaUBKTNV-1" target="3Q45-pERIwKvSEem9vSz-19">
          <mxGeometry relative="1" as="geometry">
            <mxPoint x="330" y="158" as="targetPoint" />
            <Array as="points" />
            <mxPoint x="330.0666666666666" y="108" as="sourcePoint" />
          </mxGeometry>
        </mxCell>
        <mxCell id="3Q45-pERIwKvSEem9vSz-19" value="Product Catalog" style="rounded=1;whiteSpace=wrap;html=1;fontSize=12;glass=0;strokeWidth=1;shadow=0;" vertex="1" parent="WIyWlLk6GJQsqaUBKTNV-1">
          <mxGeometry x="290" y="80" width="120" height="40" as="geometry" />
        </mxCell>
        <mxCell id="3Q45-pERIwKvSEem9vSz-31" value="" style="rounded=0;html=1;jettySize=auto;orthogonalLoop=1;fontSize=11;endArrow=block;endFill=0;endSize=8;strokeWidth=1;shadow=0;labelBackgroundColor=none;edgeStyle=orthogonalEdgeStyle;" edge="1" parent="WIyWlLk6GJQsqaUBKTNV-1">
          <mxGeometry relative="1" as="geometry">
            <mxPoint x="497" y="170" as="targetPoint" />
            <Array as="points">
              <mxPoint x="497" y="145" />
              <mxPoint x="498" y="145" />
            </Array>
            <mxPoint x="497" y="120" as="sourcePoint" />
          </mxGeometry>
        </mxCell>
        <mxCell id="3Q45-pERIwKvSEem9vSz-32" value="" style="rounded=0;html=1;jettySize=auto;orthogonalLoop=1;fontSize=11;endArrow=block;endFill=0;endSize=8;strokeWidth=1;shadow=0;labelBackgroundColor=none;edgeStyle=orthogonalEdgeStyle;" edge="1" parent="WIyWlLk6GJQsqaUBKTNV-1">
          <mxGeometry relative="1" as="geometry">
            <mxPoint x="339" y="172" as="targetPoint" />
            <Array as="points">
              <mxPoint x="339" y="147" />
              <mxPoint x="340" y="147" />
            </Array>
            <mxPoint x="339" y="122" as="sourcePoint" />
          </mxGeometry>
        </mxCell>
        <mxCell id="3Q45-pERIwKvSEem9vSz-33" value="" style="rounded=0;html=1;jettySize=auto;orthogonalLoop=1;fontSize=11;endArrow=block;endFill=0;endSize=8;strokeWidth=1;shadow=0;labelBackgroundColor=none;edgeStyle=orthogonalEdgeStyle;" edge="1" parent="WIyWlLk6GJQsqaUBKTNV-1">
          <mxGeometry relative="1" as="geometry">
            <mxPoint x="787" y="169" as="targetPoint" />
            <Array as="points">
              <mxPoint x="787" y="144" />
              <mxPoint x="788" y="144" />
            </Array>
            <mxPoint x="787.0666666666666" y="119" as="sourcePoint" />
          </mxGeometry>
        </mxCell>
        <mxCell id="3Q45-pERIwKvSEem9vSz-34" value="Payment Service" style="rounded=1;whiteSpace=wrap;html=1;fontSize=12;glass=0;strokeWidth=1;shadow=0;" vertex="1" parent="WIyWlLk6GJQsqaUBKTNV-1">
          <mxGeometry x="729" y="171" width="104" height="40" as="geometry" />
        </mxCell>
        <mxCell id="3Q45-pERIwKvSEem9vSz-35" value="" style="rounded=0;html=1;jettySize=auto;orthogonalLoop=1;fontSize=11;endArrow=block;endFill=0;endSize=8;strokeWidth=1;shadow=0;labelBackgroundColor=none;edgeStyle=orthogonalEdgeStyle;" edge="1" parent="WIyWlLk6GJQsqaUBKTNV-1">
          <mxGeometry relative="1" as="geometry">
            <mxPoint x="789" y="208" as="sourcePoint" />
            <mxPoint x="790" y="439" as="targetPoint" />
            <Array as="points">
              <mxPoint x="789" y="233" />
              <mxPoint x="790" y="233" />
            </Array>
          </mxGeometry>
        </mxCell>
        <mxCell id="3Q45-pERIwKvSEem9vSz-36" value="Payment" style="rounded=1;whiteSpace=wrap;html=1;fontSize=12;glass=0;strokeWidth=1;shadow=0;" vertex="1" parent="WIyWlLk6GJQsqaUBKTNV-1">
          <mxGeometry x="727" y="79" width="104" height="40" as="geometry" />
        </mxCell>
      </root>
    </mxGraphModel>
  </diagram>
</mxfile>
